<?xml version="1.0" encoding="UTF-8" standalone="no"?>
<!-- Generator: Adobe Illustrator 18.1.1, SVG Export Plug-In . SVG Version: 6.00 Build 0)  -->

<svg
   viewBox="0 0 50 50"
   width="50px"
   height="50px"
   version="1.1"
   id="svg8"
   sodipodi:docname="lock-unlocked.svg"
   inkscape:version="1.1.2 (0a00cf5339, 2022-02-04)"
   xmlns:inkscape="http://www.inkscape.org/namespaces/inkscape"
   xmlns:sodipodi="http://sodipodi.sourceforge.net/DTD/sodipodi-0.dtd"
   xmlns="http://www.w3.org/2000/svg"
   xmlns:svg="http://www.w3.org/2000/svg">
  <defs
     id="defs12" />
  <sodipodi:namedview
     id="namedview10"
     pagecolor="#ffffff"
     bordercolor="#666666"
     borderopacity="1.0"
     inkscape:pageshadow="2"
     inkscape:pageopacity="0.0"
     inkscape:pagecheckerboard="0"
     showgrid="false"
     inkscape:zoom="8.44"
     inkscape:cx="12.5"
     inkscape:cy="25.296209"
     inkscape:window-width="1846"
     inkscape:window-height="1016"
     inkscape:window-x="74"
     inkscape:window-y="27"
     inkscape:window-maximized="1"
     inkscape:current-layer="svg8" />
  <path
     fill="none"
     stroke="#000000"
     stroke-width="2"
     stroke-linecap="round"
     stroke-miterlimit="10"
     d="M9,49c-1.1,0-2-0.9-2-2V23c0-1.1,0.9-2,2-2h32c1.1,0,2,0.9,2,2v24c0,1.1-0.9,2-2,2H9z"
     id="path2" />
  <path
     fill="none"
     stroke="#000000"
     stroke-width="2"
     stroke-linecap="round"
     stroke-miterlimit="10"
     d="M 36,15 C 36,8.9 31.1,4 25,4 18.9,4 14,8.9 14,15 v 6"
     id="path4"
     sodipodi:nodetypes="cssc" />
  <path
     d="M28,33c0-1.7-1.3-3-3-3c-1.7,0-3,1.3-3,3c0,0.9,0.4,1.7,1,2.2V38c0,1.1,0.9,2,2,2c1.1,0,2-0.9,2-2v-2.8C27.6,34.7,28,33.9,28,33z"
     id="path6" />
</svg>
